<mxfile host="Electron" agent="Mozilla/5.0 (Windows NT 10.0; Win64; x64) AppleWebKit/537.36 (KHTML, like Gecko) draw.io/25.0.2 Chrome/128.0.6613.186 Electron/32.2.5 Safari/537.36" version="25.0.2">
  <diagram id="C5RBs43oDa-KdzZeNtuy" name="Page-1">
    <mxGraphModel dx="794" dy="557" grid="1" gridSize="10" guides="1" tooltips="1" connect="1" arrows="1" fold="1" page="1" pageScale="1" pageWidth="827" pageHeight="1169" math="0" shadow="0">
      <root>
        <mxCell id="WIyWlLk6GJQsqaUBKTNV-0" />
        <mxCell id="WIyWlLk6GJQsqaUBKTNV-1" parent="WIyWlLk6GJQsqaUBKTNV-0" />
        <mxCell id="y279GMDzBvIXLjKb8yxH-4" style="edgeStyle=orthogonalEdgeStyle;rounded=0;orthogonalLoop=1;jettySize=auto;html=1;exitX=0.5;exitY=1;exitDx=0;exitDy=0;exitPerimeter=0;entryX=0.5;entryY=0;entryDx=0;entryDy=0;" edge="1" parent="WIyWlLk6GJQsqaUBKTNV-1" source="y279GMDzBvIXLjKb8yxH-2" target="y279GMDzBvIXLjKb8yxH-3">
          <mxGeometry relative="1" as="geometry" />
        </mxCell>
        <mxCell id="y279GMDzBvIXLjKb8yxH-2" value="start" style="strokeWidth=2;html=1;shape=mxgraph.flowchart.start_1;whiteSpace=wrap;" vertex="1" parent="WIyWlLk6GJQsqaUBKTNV-1">
          <mxGeometry x="364" y="50" width="100" height="60" as="geometry" />
        </mxCell>
        <mxCell id="y279GMDzBvIXLjKb8yxH-3" value="Nhập số N" style="shape=parallelogram;html=1;strokeWidth=2;perimeter=parallelogramPerimeter;whiteSpace=wrap;rounded=1;arcSize=12;size=0.23;" vertex="1" parent="WIyWlLk6GJQsqaUBKTNV-1">
          <mxGeometry x="364" y="160" width="100" height="60" as="geometry" />
        </mxCell>
        <mxCell id="y279GMDzBvIXLjKb8yxH-5" value="Nếu N &amp;gt; 5" style="strokeWidth=2;html=1;shape=mxgraph.flowchart.decision;whiteSpace=wrap;" vertex="1" parent="WIyWlLk6GJQsqaUBKTNV-1">
          <mxGeometry x="364" y="250" width="100" height="100" as="geometry" />
        </mxCell>
        <mxCell id="y279GMDzBvIXLjKb8yxH-6" style="edgeStyle=orthogonalEdgeStyle;rounded=0;orthogonalLoop=1;jettySize=auto;html=1;exitX=0.5;exitY=1;exitDx=0;exitDy=0;entryX=0.5;entryY=0;entryDx=0;entryDy=0;entryPerimeter=0;" edge="1" parent="WIyWlLk6GJQsqaUBKTNV-1" source="y279GMDzBvIXLjKb8yxH-3" target="y279GMDzBvIXLjKb8yxH-5">
          <mxGeometry relative="1" as="geometry" />
        </mxCell>
        <mxCell id="y279GMDzBvIXLjKb8yxH-7" value="Xếp loại Đạt" style="strokeWidth=2;html=1;shape=mxgraph.flowchart.display;whiteSpace=wrap;" vertex="1" parent="WIyWlLk6GJQsqaUBKTNV-1">
          <mxGeometry x="500" y="270" width="100" height="60" as="geometry" />
        </mxCell>
        <mxCell id="y279GMDzBvIXLjKb8yxH-8" style="edgeStyle=orthogonalEdgeStyle;rounded=0;orthogonalLoop=1;jettySize=auto;html=1;exitX=1;exitY=0.5;exitDx=0;exitDy=0;exitPerimeter=0;entryX=0;entryY=0.5;entryDx=0;entryDy=0;entryPerimeter=0;" edge="1" parent="WIyWlLk6GJQsqaUBKTNV-1" source="y279GMDzBvIXLjKb8yxH-5" target="y279GMDzBvIXLjKb8yxH-7">
          <mxGeometry relative="1" as="geometry" />
        </mxCell>
        <mxCell id="y279GMDzBvIXLjKb8yxH-11" value="Xếp loại&lt;div&gt;&amp;nbsp;Không Đạt&lt;/div&gt;" style="strokeWidth=2;html=1;shape=mxgraph.flowchart.display;whiteSpace=wrap;direction=east;" vertex="1" parent="WIyWlLk6GJQsqaUBKTNV-1">
          <mxGeometry x="515" y="400" width="100" height="60" as="geometry" />
        </mxCell>
        <mxCell id="y279GMDzBvIXLjKb8yxH-16" style="edgeStyle=orthogonalEdgeStyle;rounded=0;orthogonalLoop=1;jettySize=auto;html=1;exitX=1;exitY=0.5;exitDx=0;exitDy=0;exitPerimeter=0;" edge="1" parent="WIyWlLk6GJQsqaUBKTNV-1" source="y279GMDzBvIXLjKb8yxH-14" target="y279GMDzBvIXLjKb8yxH-11">
          <mxGeometry relative="1" as="geometry" />
        </mxCell>
        <mxCell id="y279GMDzBvIXLjKb8yxH-14" value="Nếu N &amp;lt; 5" style="strokeWidth=2;html=1;shape=mxgraph.flowchart.decision;whiteSpace=wrap;" vertex="1" parent="WIyWlLk6GJQsqaUBKTNV-1">
          <mxGeometry x="364" y="380" width="100" height="100" as="geometry" />
        </mxCell>
        <mxCell id="y279GMDzBvIXLjKb8yxH-15" style="edgeStyle=orthogonalEdgeStyle;rounded=0;orthogonalLoop=1;jettySize=auto;html=1;entryX=0.5;entryY=0;entryDx=0;entryDy=0;entryPerimeter=0;" edge="1" parent="WIyWlLk6GJQsqaUBKTNV-1" source="y279GMDzBvIXLjKb8yxH-5" target="y279GMDzBvIXLjKb8yxH-14">
          <mxGeometry relative="1" as="geometry" />
        </mxCell>
        <mxCell id="y279GMDzBvIXLjKb8yxH-17" value="End" style="strokeWidth=2;html=1;shape=mxgraph.flowchart.start_1;whiteSpace=wrap;" vertex="1" parent="WIyWlLk6GJQsqaUBKTNV-1">
          <mxGeometry x="364" y="520" width="100" height="60" as="geometry" />
        </mxCell>
        <mxCell id="y279GMDzBvIXLjKb8yxH-18" style="edgeStyle=orthogonalEdgeStyle;rounded=0;orthogonalLoop=1;jettySize=auto;html=1;exitX=0.5;exitY=1;exitDx=0;exitDy=0;exitPerimeter=0;entryX=0.5;entryY=0;entryDx=0;entryDy=0;entryPerimeter=0;" edge="1" parent="WIyWlLk6GJQsqaUBKTNV-1" source="y279GMDzBvIXLjKb8yxH-14" target="y279GMDzBvIXLjKb8yxH-17">
          <mxGeometry relative="1" as="geometry" />
        </mxCell>
      </root>
    </mxGraphModel>
  </diagram>
</mxfile>
